HIERARCHY
ROOT hip
{
  OFFSET 0.00112043 5.09927 -9.65472
  CHANNELS 6 Xposition Yposition Zposition Zrotation Xrotation Yrotation
  JOINT abdomen
  {
    OFFSET 0 -1.186 -1.5018
    CHANNELS 3 Zrotation Xrotation Yrotation
    JOINT abdomen2
    {
      OFFSET 0 9.964 0.2134
      CHANNELS 3 Zrotation Xrotation Yrotation
      JOINT chest
      {
        OFFSET 0 13.134 -3.2573
        CHANNELS 3 Zrotation Xrotation Yrotation
        JOINT neck
        {
          OFFSET 0 20.686 -1.6905
          CHANNELS 3 Zrotation Xrotation Yrotation
          JOINT head
          {
            OFFSET 0 7.238 -0.1237
            CHANNELS 3 Zrotation Xrotation Yrotation
            End Site
            {
              OFFSET 0 0 0
            }
          }
        }
        JOINT lCollar
        {
          OFFSET 1.7069 20.075 5.0056
          CHANNELS 3 Zrotation Xrotation Yrotation
          JOINT lShldr
          {
            OFFSET 13.6458 -0.047 -4.849
            CHANNELS 3 Zrotation Xrotation Yrotation
            JOINT lForeArm
            {
              OFFSET 28.3255 -0.9759 2.2888
              CHANNELS 3 Zrotation Xrotation Yrotation
              JOINT lHand
              {
                OFFSET 22.1583 -0.53 10.8316
                CHANNELS 3 Zrotation Xrotation Yrotation
                JOINT lThumb1
                {
                  OFFSET 0.786 0.112 2.5817
                  CHANNELS 3 Zrotation Xrotation Yrotation
                  JOINT lThumb2
                  {
                    OFFSET 0.3601 -0.878 4.2331
                    CHANNELS 3 Zrotation Xrotation Yrotation
                    JOINT lThumb2_End
                    {
                      OFFSET 1.8127 -1.216 2.2227
                      CHANNELS 3 Zrotation Xrotation Yrotation
                      End Site
                      {
                        OFFSET 0.0181 -0.0122 0.0222
                      }
                    }
                  }
                }
                JOINT lCarpal1
                {
                  OFFSET 0.9571 1.114 1.7695
                  CHANNELS 3 Zrotation Xrotation Yrotation
                  JOINT lIndex1
                  {
                    OFFSET 4.1246 0.487 4.1451
                    CHANNELS 3 Zrotation Xrotation Yrotation
                    JOINT lIndex2
                    {
                      OFFSET 3.4052 -1.454 2.7682
                      CHANNELS 3 Zrotation Xrotation Yrotation
                      JOINT lIndex2_End
                      {
                        OFFSET 1.4531 -1.795 1.2713
                        CHANNELS 3 Zrotation Xrotation Yrotation
                        End Site
                        {
                          OFFSET 0.0145 -0.0179 0.0127
                        }
                      }
                    }
                  }
                  JOINT lMid1
                  {
                    OFFSET 5.6954 0.21 2.1184
                    CHANNELS 3 Zrotation Xrotation Yrotation
                    JOINT lMid2
                    {
                      OFFSET 3.9766 -1.54 2.3863
                      CHANNELS 3 Zrotation Xrotation Yrotation
                      JOINT lMid2_End
                      {
                        OFFSET 1.4042 -1.926 1.125
                        CHANNELS 3 Zrotation Xrotation Yrotation
                        End Site
                        {
                          OFFSET 0.014 -0.0193 0.0113
                        }
                      }
                    }
                  }
                }
                JOINT lCarpal2
                {
                  OFFSET 2.0956 0.66 -0.3894
                  CHANNELS 3 Zrotation Xrotation Yrotation
                  JOINT lRing1
                  {
                    OFFSET 5.0395 -0.09 2.4971
                    CHANNELS 3 Zrotation Xrotation Yrotation
                    JOINT lRing2
                    {
                      OFFSET 3.7921 -1.552 1.4806
                      CHANNELS 3 Zrotation Xrotation Yrotation
                      JOINT lRing2_End
                      {
                        OFFSET 1.4655 -1.808 0.9609
                        CHANNELS 3 Zrotation Xrotation Yrotation
                        End Site
                        {
                          OFFSET 0.0147 -0.0181 0.0096
                        }
                      }
                    }
                  }
                  JOINT lPinky1
                  {
                    OFFSET 4.9141 -1.269 0.3591
                    CHANNELS 3 Zrotation Xrotation Yrotation
                    JOINT lPinky2
                    {
                      OFFSET 3.1477 -1.685 0.8462
                      CHANNELS 3 Zrotation Xrotation Yrotation
                      JOINT lPinky2_End
                      {
                        OFFSET 0.8055 -1.585 0.7955
                        CHANNELS 3 Zrotation Xrotation Yrotation
                        End Site
                        {
                          OFFSET 0.0081 -0.0158 0.008
                        }
                      }
                    }
                  }
                }
              }
            }
          }
        }
        JOINT rCollar
        {
          OFFSET -1.7069 20.075 5.0056
          CHANNELS 3 Zrotation Xrotation Yrotation
          JOINT rShldr
          {
            OFFSET -13.6458 -0.047 -4.849
            CHANNELS 3 Zrotation Xrotation Yrotation
            JOINT rForeArm
            {
              OFFSET -28.3255 -0.9759 2.2888
              CHANNELS 3 Zrotation Xrotation Yrotation
              JOINT rHand
              {
                OFFSET -22.1583 -0.53 10.8316
                CHANNELS 3 Zrotation Xrotation Yrotation
                JOINT rThumb1
                {
                  OFFSET -0.786 0.112 2.5817
                  CHANNELS 3 Zrotation Xrotation Yrotation
                  JOINT rThumb2
                  {
                    OFFSET -0.3601 -0.878 4.2331
                    CHANNELS 3 Zrotation Xrotation Yrotation
                    JOINT rThumb2_End
                    {
                      OFFSET -1.8127 -1.216 2.2227
                      CHANNELS 3 Zrotation Xrotation Yrotation
                      End Site
                      {
                        OFFSET -0.0181 -0.0122 0.0222
                      }
                    }
                  }
                }
                JOINT rCarpal1
                {
                  OFFSET -0.9571 1.114 1.7695
                  CHANNELS 3 Zrotation Xrotation Yrotation
                  JOINT rIndex1
                  {
                    OFFSET -4.1246 0.487 4.1451
                    CHANNELS 3 Zrotation Xrotation Yrotation
                    JOINT rIndex2
                    {
                      OFFSET -3.4052 -1.454 2.7682
                      CHANNELS 3 Zrotation Xrotation Yrotation
                      JOINT rIndex2_End
                      {
                        OFFSET -1.4531 -1.795 1.2713
                        CHANNELS 3 Zrotation Xrotation Yrotation
                        End Site
                        {
                          OFFSET -0.0145 -0.018 0.0127
                        }
                      }
                    }
                  }
                  JOINT rMid1
                  {
                    OFFSET -5.6954 0.21 2.1184
                    CHANNELS 3 Zrotation Xrotation Yrotation
                    JOINT rMid2
                    {
                      OFFSET -3.9766 -1.54 2.3863
                      CHANNELS 3 Zrotation Xrotation Yrotation
                      JOINT rMid2_End
                      {
                        OFFSET -1.4042 -1.926 1.125
                        CHANNELS 3 Zrotation Xrotation Yrotation
                        End Site
                        {
                          OFFSET -0.014 -0.0193 0.0113
                        }
                      }
                    }
                  }
                }
                JOINT rCarpal2
                {
                  OFFSET -2.0956 0.66 -0.3894
                  CHANNELS 3 Zrotation Xrotation Yrotation
                  JOINT rRing1
                  {
                    OFFSET -5.0395 -0.09 2.4971
                    CHANNELS 3 Zrotation Xrotation Yrotation
                    JOINT rRing2
                    {
                      OFFSET -3.7921 -1.552 1.4806
                      CHANNELS 3 Zrotation Xrotation Yrotation
                      JOINT rRing2_End
                      {
                        OFFSET -1.4655 -1.808 0.9609
                        CHANNELS 3 Zrotation Xrotation Yrotation
                        End Site
                        {
                          OFFSET -0.0147 -0.0181 0.0096
                        }
                      }
                    }
                  }
                  JOINT rPinky1
                  {
                    OFFSET -4.9141 -1.269 0.3592
                    CHANNELS 3 Zrotation Xrotation Yrotation
                    JOINT rPinky2
                    {
                      OFFSET -3.1477 -1.685 0.8462
                      CHANNELS 3 Zrotation Xrotation Yrotation
                      JOINT rPinky2_End
                      {
                        OFFSET -0.8055 -1.585 0.7955
                        CHANNELS 3 Zrotation Xrotation Yrotation
                        End Site
                        {
                          OFFSET -0.0081 -0.0158 0.008
                        }
                      }
                    }
                  }
                }
              }
            }
          }
        }
      }
    }
  }
  JOINT lThigh
  {
    OFFSET 8.367 -8.2066 0.5982
    CHANNELS 3 Zrotation Xrotation Yrotation
    JOINT lShin
    {
      OFFSET 2.1923 -43.463 -0.4932
      CHANNELS 3 Zrotation Xrotation Yrotation
      JOINT lFoot
      {
        OFFSET 0.7333 -45.8593 -2.6451
        CHANNELS 3 Zrotation Xrotation Yrotation
        End Site
        {
          OFFSET 2.6618 -4.2699 12.3931
        }
      }
    }
  }
  JOINT rThigh
  {
    OFFSET -8.367 -8.2066 0.5982
    CHANNELS 3 Zrotation Xrotation Yrotation
    JOINT rShin
    {
      OFFSET -2.1923 -43.463 -0.4931
      CHANNELS 3 Zrotation Xrotation Yrotation
      JOINT rFoot
      {
        OFFSET -0.7333 -45.8593 -2.6451
        CHANNELS 3 Zrotation Xrotation Yrotation
        End Site
        {
          OFFSET -2.6618 -4.2699 12.3931
        }
      }
    }
  }
}
MOTION
Frames:	5
Frame Time:	0.0333333
0 91.7903 2.51682 0 0 -0 0 0 -0 0 0 -0 0 0 -0 0 0 -0 0 0 -0 0 0 -0 1.66051 0.0835086 5.75766 -0.0175111 0.895433 15.7816 7.95139e-016 -1.98785e-016 -0 5.46658e-016 -3.97569e-016 -0 5.96354e-016 0 -0 3.97569e-016 1.98785e-016 9.54166e-015 1.49089e-016 -3.97569e-016 -0 6.4605e-016 0 3.18055e-015 5.96354e-016 0 3.18055e-015 8.94531e-016 -1.98785e-016 6.36111e-015 6.4605e-016 0 3.18055e-015 5.96354e-016 0 3.18055e-015 8.94531e-016 -1.98785e-016 6.36111e-015 1.49089e-016 -3.97569e-016 -0 6.4605e-016 0 3.18055e-015 5.96354e-016 0 3.18055e-015 8.94531e-016 -1.98785e-016 6.36111e-015 6.4605e-016 0 3.18055e-015 5.96354e-016 0 3.18055e-015 8.94531e-016 -1.98785e-016 6.36111e-015 0 0 -0 -1.4496 0.0636048 -5.0245 -1.74811 1.20616 -16.8394 -1.19271e-015 1.98785e-016 -3.18055e-015 -3.97569e-016 1.98785e-016 -3.18055e-015 -2.98177e-016 1.98785e-016 -3.18055e-015 -2.98177e-016 3.97569e-016 -0 4.96962e-016 0 -6.36111e-015 -9.93923e-017 3.97569e-016 -0 -8.94531e-016 5.96354e-016 -0 -3.97569e-016 3.97569e-016 -0 -9.93923e-017 3.97569e-016 -0 -8.94531e-016 5.96354e-016 -0 -3.97569e-016 3.97569e-016 -0 4.96962e-016 0 -6.36111e-015 -9.93923e-017 3.97569e-016 -0 -8.94531e-016 5.96354e-016 -0 -3.97569e-016 3.97569e-016 -0 -9.93923e-017 3.97569e-016 -0 -8.94531e-016 5.96354e-016 -0 -3.97569e-016 3.97569e-016 -0 -4.66111 -0.998717 0.12318 0.00986924 1.54847 0.176523 4.65186 -0.572283 -0.254274 4.66111 -0.998765 -0.123176 -0.00986867 1.54869 -0.176537 -4.65186 -0.572453 0.25427 
42.3102 35.5548 -10.5091 -0.00385301 -56.9972 179.995 -0.204015 8.69208 -0.120534 -0.396252 17.3845 -0.213079 -0.396252 17.3845 -0.213079 -1.24293e-006 -33 -6.55835e-007 2.27166e-007 -15.0017 -1.50752e-007 0.656546 -11.6092 -29.6868 2.39279 -4.51447 -40.7682 7.64024 -12.5628 10.6165 55.991 -26.6566 10.2215 5.65496e-007 -6.83913e-007 3.25652e-006 -3.65699e-007 -1.14185e-006 -1.39595e-007 -9.31195e-007 -4.5794e-007 -3.39611e-006 -4.77083e-015 -7.95139e-016 6.36111e-015 5.65496e-007 -6.83913e-007 3.25652e-006 -3.65699e-007 -1.14185e-006 -1.39595e-007 -9.31195e-007 -4.5794e-007 -3.39611e-006 5.65496e-007 -6.83913e-007 3.25652e-006 -3.65699e-007 -1.14185e-006 -1.39595e-007 -9.31195e-007 -4.5794e-007 -3.39611e-006 -4.77083e-015 -7.95139e-016 6.36111e-015 5.65496e-007 -6.83913e-007 3.25652e-006 -3.65699e-007 -1.14185e-006 -1.39595e-007 -9.31195e-007 -4.5794e-007 -3.39611e-006 5.65496e-007 -6.83913e-007 3.25652e-006 -3.65699e-007 -1.14185e-006 -1.39595e-007 -9.31195e-007 -4.5794e-007 -3.39611e-006 0.743858 -10.7647 25.2635 -2.32077 -4.31018 52.0323 -10.3534 -12.7869 -6.82332 -59.6407 -16.6462 -15.8174 6.65034e-007 -9.80974e-008 -3.16407e-006 7.52304e-007 -3.95086e-007 5.69145e-008 1.28778e-006 4.13029e-007 -6.23358e-006 -3.18055e-015 -7.95139e-016 -3.18055e-015 6.65034e-007 -9.80974e-008 -3.16407e-006 7.52304e-007 -3.95086e-007 5.69145e-008 1.28778e-006 4.13029e-007 -6.23358e-006 6.65034e-007 -9.80974e-008 -3.16407e-006 7.52304e-007 -3.95086e-007 5.69145e-008 1.28778e-006 4.13029e-007 -6.23358e-006 -3.18055e-015 -7.95139e-016 -3.18055e-015 6.65034e-007 -9.80974e-008 -3.16407e-006 7.52304e-007 -3.95086e-007 5.69145e-008 1.28778e-006 4.13029e-007 -6.23358e-006 6.65034e-007 -9.80974e-008 -3.16407e-006 7.52304e-007 -3.95086e-007 5.69145e-008 1.28778e-006 4.13029e-007 -6.23358e-006 63.4532 -56.2812 70.3998 92.7739 63.014 -90.3374 27.8691 54.867 -12.8208 -63.4594 -56.2767 -70.4058 -92.7745 63.0141 90.333 -27.8727 54.8669 12.819 
42.3102 35.5806 -10.2899 -0.00385285 -56.9961 179.995 -0.20352 8.5596 -0.12122 -0.395224 17.1195 -0.214951 -0.395224 17.1196 -0.214951 8.13676e-007 -32.1935 4.43396e-007 -1.8616e-008 -14.4606 1.84589e-007 0.608832 -11.3418 -30.3203 2.40182 -4.53462 -40.151 7.37078 -12.493 10.7825 55.8215 -26.6974 9.97734 -1.11971e-006 -1.52979e-006 -1.95032e-007 7.75944e-007 -1.50769e-006 -1.6783e-007 1.76556e-031 3.18055e-015 -3.18055e-015 1.32417e-031 2.38542e-015 -3.18055e-015 -1.11971e-006 -1.52979e-006 -1.95032e-007 7.75944e-007 -1.50769e-006 -1.6783e-007 1.76556e-031 3.18055e-015 -3.18055e-015 -1.11971e-006 -1.52979e-006 -1.95032e-007 7.75944e-007 -1.50769e-006 -1.6783e-007 1.76556e-031 3.18055e-015 -3.18055e-015 1.32417e-031 2.38542e-015 -3.18055e-015 -1.11971e-006 -1.52979e-006 -1.95032e-007 7.75944e-007 -1.50769e-006 -1.6783e-007 1.76556e-031 3.18055e-015 -3.18055e-015 -1.11971e-006 -1.52979e-006 -1.95032e-007 7.75944e-007 -1.50769e-006 -1.6783e-007 1.76556e-031 3.18055e-015 -3.18055e-015 0.789462 -10.4449 25.8068 -2.30585 -4.28484 51.558 -10.3534 -12.7868 -6.82332 -59.3424 -16.6797 -15.5948 2.64834e-031 2.38542e-015 -6.36111e-015 -1.13864e-007 -7.08063e-007 3.77975e-007 -3.18055e-015 -2.38542e-015 -6.36111e-015 0 0 -6.36111e-015 -8.82781e-031 3.97569e-015 1.27222e-014 -1.13864e-007 -7.08063e-007 3.77975e-007 -3.18055e-015 -1.59028e-015 -3.18055e-015 -8.82781e-031 3.97569e-015 1.27222e-014 -1.13864e-007 -7.08063e-007 3.77975e-007 -3.18055e-015 -1.59028e-015 -3.18055e-015 0 0 -6.36111e-015 -8.82781e-031 3.97569e-015 1.27222e-014 -1.13864e-007 -7.08063e-007 3.77975e-007 -3.18055e-015 -1.59028e-015 -3.18055e-015 -8.82781e-031 3.97569e-015 1.27222e-014 -1.13864e-007 -7.08063e-007 3.77975e-007 -3.18055e-015 -1.59028e-015 -3.18055e-015 63.8164 -56.4683 70.6908 92.8056 63.0132 -90.3608 27.87 54.8642 -12.8129 -63.8255 -56.4656 -70.6999 -92.8065 63.0133 90.3569 -27.8734 54.8637 12.8109 
42.3102 35.6061 -10.0706 -0.00385285 -56.9961 179.995 -0.202997 8.42681 -0.121896 -0.394148 16.854 -0.216803 -0.394148 16.854 -0.216803 3.36671e-006 -31.3843 1.89888e-006 3.62898e-008 -13.9186 6.10771e-008 0.564152 -11.0738 -30.9534 2.41106 -4.55465 -39.5335 7.10114 -12.424 10.9489 55.6519 -26.7375 9.73297 1.32417e-031 -2.38542e-015 3.18055e-015 1.59028e-015 -2.38542e-015 -0 3.18055e-015 -1.59028e-015 3.18055e-015 -1.59028e-015 -7.95139e-016 3.18055e-015 -1.59028e-015 7.95139e-016 9.54166e-015 1.59028e-015 -3.97569e-015 3.18055e-015 -1.32417e-031 -2.38542e-015 -3.18055e-015 -1.59028e-015 7.95139e-016 9.54166e-015 1.59028e-015 -3.97569e-015 3.18055e-015 -1.32417e-031 -2.38542e-015 -3.18055e-015 -1.59028e-015 -7.95139e-016 3.18055e-015 -1.59028e-015 7.95139e-016 9.54166e-015 1.59028e-015 -3.97569e-015 3.18055e-015 -1.32417e-031 -2.38542e-015 -3.18055e-015 -1.59028e-015 7.95139e-016 9.54166e-015 1.59028e-015 -3.97569e-015 3.18055e-015 -1.32417e-031 -2.38542e-015 -3.18055e-015 0.83196 -10.1246 26.3497 -2.29074 -4.25964 51.0837 -10.3534 -12.7869 -6.82334 -59.0439 -16.7121 -15.372 -4.77083e-015 2.70347e-014 3.18055e-015 1.59028e-015 2.8625e-014 -0 3.18055e-015 2.8625e-014 -0 -4.77083e-015 -7.95139e-016 3.18055e-015 -1.59028e-015 2.78299e-014 -0 1.59028e-015 2.94201e-014 -0 4.77083e-015 2.8625e-014 -0 -1.59028e-015 2.78299e-014 -0 1.59028e-015 2.94201e-014 -0 4.77083e-015 2.8625e-014 -0 -4.77083e-015 -7.95139e-016 3.18055e-015 -1.59028e-015 2.78299e-014 -0 1.59028e-015 2.94201e-014 -0 4.77083e-015 2.8625e-014 -0 -1.59028e-015 2.78299e-014 -0 1.59028e-015 2.94201e-014 -0 4.77083e-015 2.8625e-014 -0 64.1839 -56.6542 70.9861 92.8372 63.0124 -90.3847 27.8711 54.8616 -12.8053 -64.1959 -56.6533 -70.9983 -92.8385 63.0125 90.3812 -27.8741 54.8608 12.8029 
42.3102 35.6315 -9.85109 -0.00385285 -56.9961 179.995 -0.202467 8.29375 -0.122567 -0.393068 16.5878 -0.218645 -0.393068 16.5878 -0.218645 -2.22643e-006 -30.5718 -1.0279e-006 1.55066e-007 -13.3759 2.3095e-007 0.522518 -10.805 -31.586 2.42052 -4.57458 -38.9157 6.83136 -12.3557 11.1155 55.4819 -26.777 9.48835 3.87799e-007 -7.53953e-007 -8.37398e-008 3.87799e-007 -7.53953e-007 -8.37399e-008 -1.12011e-006 -1.52955e-006 -1.94807e-007 8.82781e-032 -7.95139e-016 6.36111e-015 3.87799e-007 -7.53953e-007 -8.37398e-008 3.87799e-007 -7.53953e-007 -8.37399e-008 -1.12011e-006 -1.52955e-006 -1.94807e-007 3.87799e-007 -7.53953e-007 -8.37398e-008 3.87799e-007 -7.53953e-007 -8.37399e-008 -1.12011e-006 -1.52955e-006 -1.94807e-007 8.82781e-032 -7.95139e-016 6.36111e-015 3.87799e-007 -7.53953e-007 -8.37398e-008 3.87799e-007 -7.53953e-007 -8.37399e-008 -1.12011e-006 -1.52955e-006 -1.94807e-007 3.87799e-007 -7.53953e-007 -8.37398e-008 3.87799e-007 -7.53953e-007 -8.37399e-008 -1.12011e-006 -1.52955e-006 -1.94807e-007 0.871344 -9.80372 26.8919 -2.27541 -4.23454 50.6092 -10.3534 -12.7869 -6.8233 -58.7452 -16.7434 -15.1489 -8.82781e-032 1.59028e-015 3.18055e-015 3.18055e-015 0 -0 1.76556e-031 -1.59028e-015 6.36111e-015 -1.59028e-015 1.59028e-015 3.18055e-015 -1.59028e-015 0 6.36111e-015 -4.41391e-032 7.95139e-016 3.18055e-015 0 0 -0 -1.59028e-015 0 6.36111e-015 -4.41391e-032 7.95139e-016 3.18055e-015 0 0 -0 -1.59028e-015 1.59028e-015 3.18055e-015 -1.59028e-015 0 6.36111e-015 -4.41391e-032 7.95139e-016 3.18055e-015 0 0 -0 -1.59028e-015 0 6.36111e-015 -4.41391e-032 7.95139e-016 3.18055e-015 0 0 -0 64.5555 -56.8392 71.2851 92.869 63.0116 -90.4089 27.8721 54.859 -12.7976 -64.5701 -56.84 -71.3003 -92.8704 63.0117 90.4055 -27.8748 54.8579 12.795 
